# xmcd CD database file
#
# Track frame offsets:
#	150
#	13187
#	34593
#	59286
#	72085
#	88940
#	104496
#	115791
#	135690
#	147542
#	172207
#	192056
#	211986
#
# Disc length: 2987 seconds
#
# Revision: 0
# Processed by: cddbd v1.5.2PL0 Copyright (c) Steve Scherf et al.
# Submitted via: CDex 1.51
#
DISCID=c10ba90d
DTITLE=Torsten Turinsky Trio - Confusion
DYEAR=1997
DGENRE=Jazz
TTITLE0=Sugar (stanley Turrentine)
TTITLE1=Red Baron (Billy Cobham)
TTITLE2=Big Bad Henry (Roland Hanna)
TTITLE3=Cold Duck Time (Eddie Harris)
TTITLE4=Mister Mistery (R. Petrone)
TTITLE5=Peace (Horace Silver)
TTITLE6=G-Blues (Joe Pass)
TTITLE7=Joshua (Victor Feldman)
TTITLE8=Chicken (A. Ellis)
TTITLE9=Mercy, Mercy, Mercy (Josef Zawinul)
TTITLE10=All Blues (Miles Davis)
TTITLE11=Partido Alto (Jose Bertrami)
TTITLE12=Put It Where You Want It (Joe Sample)
EXTD=YEAR: 1997
EXTT0=
EXTT1=
EXTT2=
EXTT3=
EXTT4=
EXTT5=
EXTT6=
EXTT7=
EXTT8=
EXTT9=
EXTT10=
EXTT11=
EXTT12=
PLAYORDER=
